<svg xmlns="http://www.w3.org/2000/svg" viewBox="0 0 48 48">
  <!-- Nonagon (eneágono) network icon - transparent background -->

  <!-- Outer nonagon -->
  <polygon
    points="24,3 37.5,7.5 44,20 41.5,33.5 31,43 17,43 6.5,33.5 4,20 10.5,7.5"
    fill="none" stroke="#26C6DA" stroke-width="2.5" stroke-linejoin="round"/>

  <!-- Vertex nodes -->
  <circle cx="24" cy="3" r="2.5" fill="#3B82F6"/>
  <circle cx="37.5" cy="7.5" r="2" fill="#26C6DA"/>
  <circle cx="44" cy="20" r="2.5" fill="#26C6DA"/>
  <circle cx="41.5" cy="33.5" r="2" fill="#3B82F6"/>
  <circle cx="31" cy="43" r="2.5" fill="#26C6DA"/>
  <circle cx="17" cy="43" r="2" fill="#3B82F6"/>
  <circle cx="6.5" cy="33.5" r="2.5" fill="#26C6DA"/>
  <circle cx="4" cy="20" r="2" fill="#3B82F6"/>
  <circle cx="10.5" cy="7.5" r="2.5" fill="#26C6DA"/>

  <!-- Inner nonagon (subtle) -->
  <polygon
    points="24,11 31.5,14 36,21 34.5,29 28.5,34 19.5,34 13.5,29 12,21 16.5,14"
    fill="none" stroke="#0F1629" stroke-width="1" opacity="0.2"/>

  <!-- Bar chart -->
  <rect x="15" y="24" width="5.5" height="13" rx="1.5" fill="#3B82F6"/>
  <rect x="21.5" y="18" width="5.5" height="19" rx="1.5" fill="#26C6DA"/>
  <rect x="28" y="13" width="5.5" height="24" rx="1.5" fill="#D4883A"/>
</svg>
