<svg xmlns="http://www.w3.org/2000/svg" viewBox="0 0 280 48">
  <!-- Icon: Nonagon network with bar chart (transparent background) -->
  <g transform="translate(0, 0)">
    <!-- Outer nonagon (eneágono) -->
    <polygon
      points="24,3 37.5,7.5 44,20 41.5,33.5 31,43 17,43 6.5,33.5 4,20 10.5,7.5"
      fill="none" stroke="#26C6DA" stroke-width="2" stroke-linejoin="round"/>

    <!-- Vertex nodes -->
    <circle cx="24" cy="3" r="2" fill="#3B82F6"/>
    <circle cx="37.5" cy="7.5" r="1.5" fill="#26C6DA"/>
    <circle cx="44" cy="20" r="2" fill="#26C6DA"/>
    <circle cx="41.5" cy="33.5" r="1.5" fill="#3B82F6"/>
    <circle cx="31" cy="43" r="2" fill="#26C6DA"/>
    <circle cx="17" cy="43" r="1.5" fill="#3B82F6"/>
    <circle cx="6.5" cy="33.5" r="2" fill="#26C6DA"/>
    <circle cx="4" cy="20" r="1.5" fill="#3B82F6"/>
    <circle cx="10.5" cy="7.5" r="2" fill="#26C6DA"/>

    <!-- Inner nonagon (smaller, subtle) -->
    <polygon
      points="24,11 31.5,14 36,21 34.5,29 28.5,34 19.5,34 13.5,29 12,21 16.5,14"
      fill="none" stroke="#0F1629" stroke-width="0.8" opacity="0.2"/>

    <!-- Bar chart bars -->
    <rect x="15" y="24" width="5" height="13" rx="1.5" fill="#3B82F6"/>
    <rect x="21.5" y="18" width="5" height="19" rx="1.5" fill="#26C6DA"/>
    <rect x="28" y="13" width="5" height="24" rx="1.5" fill="#D4883A"/>
  </g>

  <!-- Text: FastAnalytics with multicolor letters -->
  <text x="54" y="23" font-family="Inter, -apple-system, BlinkMacSystemFont, sans-serif" font-size="21" font-weight="800" letter-spacing="-0.5">
    <tspan fill="#26C6DA">F</tspan><tspan fill="#D4883A">a</tspan><tspan fill="#3B82F6">s</tspan><tspan fill="#26C6DA">t</tspan><tspan fill="#3B82F6">A</tspan><tspan fill="#3B82F6">n</tspan><tspan fill="#D4883A">a</tspan><tspan fill="#3B82F6">ly</tspan><tspan fill="#3B82F6">t</tspan><tspan fill="#D4883A">i</tspan><tspan fill="#26C6DA">c</tspan><tspan fill="#3B82F6">s</tspan>
  </text>

  <!-- S.A.S. label -->
  <g transform="translate(232, 4)">
    <rect width="30" height="14" rx="3" fill="none" stroke="#26C6DA" stroke-width="0.8"/>
    <text x="15" y="10.5" text-anchor="middle" font-family="Inter, -apple-system, sans-serif" font-size="7.5" font-weight="600" fill="#26C6DA" letter-spacing="0.5">S.A.S</text>
  </g>

  <!-- Tagline line -->
  <line x1="54" y1="30" x2="262" y2="30" stroke="#26C6DA" stroke-width="0.6" opacity="0.5"/>

  <!-- Tagline text -->
  <text x="54" y="42" font-family="Inter, -apple-system, sans-serif" font-size="8" font-weight="500" fill="#8888A0" letter-spacing="1.5">
    IA ESPACIOTEMPORAL PARA DECISIONES PREDICTIVAS
  </text>
</svg>
