<svg xmlns="http://www.w3.org/2000/svg" viewBox="0 0 180 180" width="512" height="512"><circle cx="90" cy="90" r="88" fill="#ffffff"/><defs><linearGradient id="g-alejo2" x1="0" y1="0" x2="0" y2="1"><stop offset="0%" stop-color="#006D6D" stop-opacity=".14"/><stop offset="100%" stop-color="#006D6D" stop-opacity=".03"/></linearGradient></defs><path d="M46 66 Q46 60 52 60 L128 60 Q134 60 134 66 L134 104 Q134 138 90 156 Q46 138 46 104 Z" fill="url(#g-alejo2)" stroke="#006D6D" stroke-width="10" stroke-linejoin="round"/><ellipse cx="74" cy="93" rx="7" ry="10" fill="#006D6D"/><ellipse cx="106" cy="93" rx="7" ry="10" fill="#006D6D"/><path d="M76 116 Q90 128 104 116" fill="none" stroke="#006D6D" stroke-width="9" stroke-linecap="round"/><rect x="38" y="52" width="104" height="14" rx="7" fill="#006D6D" opacity=".9"/><path d="M58 52 Q58 22 90 22 Q122 22 122 52" fill="none" stroke="#006D6D" stroke-width="8" stroke-linecap="round"/><path d="M48 60 L132 60" stroke="#00BFA6" stroke-width="3" stroke-linecap="round"/><polygon points="90.0,4.0 96.4,6.3 99.8,12.3 98.7,19.0 93.4,23.4 86.6,23.4 81.3,19.0 80.2,12.3 83.6,6.3" fill="#D4883A"/></svg>