<svg xmlns="http://www.w3.org/2000/svg" viewBox="0 0 180 180" width="512" height="512"><circle cx="90" cy="90" r="88" fill="#ffffff"/><path d="M46 66 Q46 60 52 60 L128 60 Q134 60 134 66 L134 104 Q134 138 90 156 Q46 138 46 104 Z" fill="none" stroke="#334155" stroke-width="10" stroke-linejoin="round"/><ellipse cx="74" cy="93" rx="7" ry="10" fill="#334155"/><ellipse cx="106" cy="93" rx="7" ry="10" fill="#334155"/><path d="M76 116 Q90 128 104 116" fill="none" stroke="#334155" stroke-width="9" stroke-linecap="round"/><line x1="48" y1="52" x2="70" y2="30" stroke="#334155" stroke-width="2.5" opacity=".55"/><line x1="70" y1="30" x2="90" y2="44" stroke="#334155" stroke-width="2.5" opacity=".55"/><line x1="90" y1="44" x2="110" y2="26" stroke="#334155" stroke-width="2.5" opacity=".55"/><line x1="110" y1="26" x2="132" y2="50" stroke="#334155" stroke-width="2.5" opacity=".55"/><line x1="70" y1="30" x2="110" y2="26" stroke="#334155" stroke-width="2.5" opacity=".55"/><line x1="90" y1="44" x2="132" y2="50" stroke="#334155" stroke-width="2.5" opacity=".55"/><line x1="70" y1="30" x2="90" y2="16" stroke="#334155" stroke-width="2.5" opacity=".55"/><line x1="110" y1="26" x2="90" y2="16" stroke="#334155" stroke-width="2.5" opacity=".55"/><line x1="90" y1="44" x2="90" y2="16" stroke="#334155" stroke-width="2.5" opacity=".55"/><circle cx="48" cy="52" r="4" fill="#334155"/><circle cx="70" cy="30" r="4" fill="#006D6D"/><circle cx="90" cy="44" r="4" fill="#334155"/><circle cx="110" cy="26" r="4" fill="#006D6D"/><circle cx="132" cy="50" r="4" fill="#334155"/><circle cx="90" cy="16" r="5" fill="#D4883A"/></svg>