<svg xmlns="http://www.w3.org/2000/svg" viewBox="0 0 180 180" width="512" height="512"><circle cx="90" cy="90" r="88" fill="#ffffff"/><path d="M46 66 Q46 60 52 60 L128 60 Q134 60 134 66 L134 104 Q134 138 90 156 Q46 138 46 104 Z" fill="none" stroke="#B7791F" stroke-width="10" stroke-linejoin="round"/><ellipse cx="74" cy="93" rx="7" ry="10" fill="#B7791F"/><ellipse cx="106" cy="93" rx="7" ry="10" fill="#B7791F"/><path d="M76 116 Q90 128 104 116" fill="none" stroke="#B7791F" stroke-width="9" stroke-linecap="round"/><path d="M48 66 Q48 28 90 28 Q132 28 132 66" fill="none" stroke="#B7791F" stroke-width="9" stroke-linecap="round"/><g><rect x="34" y="10" width="44" height="24" rx="9" fill="#006D6D"/><path d="M52 34 L46 44 L62 34 Z" fill="#006D6D"/><rect x="102" y="10" width="44" height="24" rx="9" fill="#D4883A"/><path d="M128 34 L134 44 L118 34 Z" fill="#D4883A"/><circle cx="48" cy="22" r="3" fill="#fff"/><circle cx="62" cy="22" r="3" fill="#fff"/><circle cx="118" cy="22" r="3" fill="#fff"/><circle cx="132" cy="22" r="3" fill="#fff"/></g></svg>